# xmcd
#
# Track frame offsets:
#  150
#  23272
#  42368
#  66882
#  91211
#  111850
#  141768
#  156102
#  174254
#  198925
#  216916
#  240368
#  264444
#  287702
#  322975
#
# Disc length: 4527 seconds
#
# Revision: 0
# Processed by: cddbd v1.5.1PL0 Copyright (c) Steve Scherf et al.
# Submitted via: Collectorz.com_Music_Collector 6.9
#
DISCID=c411ad0f
DTITLE=Bela Fleck - Left Of Cool
DYEAR=1998
DGENRE=Bluegrass
TTITLE0=Throwdown At The Hoedown
TTITLE1=Communication
TTITLE2=Big Country
TTITLE3=Sojourn Of Arjuna
TTITLE4=Let Me Be The One
TTITLE5=Trane To Conamarra
TTITLE6=Almost 12
TTITLE7=Step Quiet
TTITLE8=Oddity
TTITLE9=Sleeping Dogs Lie
TTITLE10=Trouble And Strife
TTITLE11=Slow Walker
TTITLE12=Shanti
TTITLE13=The Big Blink
TTITLE14=Prelude To Silence
EXTD=
EXTT0=
EXTT1=
EXTT2=
EXTT3=
EXTT4=
EXTT5=
EXTT6=
EXTT7=
EXTT8=
EXTT9=
EXTT10=
EXTT11=
EXTT12=
EXTT13=
EXTT14=
PLAYORDER=
